HIERARCHY
ROOT SpineBase
{
  OFFSET 0.000000 0.000000 0.000000
  CHANNELS 6 Xposition Yposition Zposition Zrotation Xrotation Yrotation
  JOINT SpineMid
  {
    OFFSET 0.000000 31.596751 0.000000
    CHANNELS 3 Zrotation Xrotation Yrotation
    JOINT SpineShoulder
    {
      OFFSET 0.072309 23.032987 -0.541073
      CHANNELS 3 Zrotation Xrotation Yrotation
      JOINT Neck
      {
        OFFSET 0.001759 7.591501 -0.424811
        CHANNELS 3 Zrotation Xrotation Yrotation
        JOINT Head
        {
          OFFSET 4.686029 13.185281 0.755243
          CHANNELS 3 Zrotation Xrotation Yrotation
          End Site
          {
            OFFSET 0 0 0
          }
        }
      }
      JOINT ShoulderLeft
      {
        OFFSET -11.484029 -1.877769 -11.903472
        CHANNELS 3 Zrotation Xrotation Yrotation
        JOINT ElbowLeft
        {
          OFFSET -2.206220 -24.969803 -7.077538
          CHANNELS 3 Zrotation Xrotation Yrotation
          JOINT WristLeft
          {
            OFFSET 2.590475 -21.427626 -6.231074
            CHANNELS 3 Zrotation Xrotation Yrotation
            JOINT HandLeft
            {
              OFFSET 0.682283 -6.420858 -0.500606
              CHANNELS 3 Zrotation Xrotation Yrotation
              JOINT HandTipLeft
              {
                OFFSET 2.189139 -6.498927 -1.588555
                CHANNELS 3 Zrotation Xrotation Yrotation
                End Site
                {
                  OFFSET 0 0 0
                }
              }
              JOINT ThumbLeft
              {
                OFFSET 2.996974 2.334325 0.105898
                CHANNELS 3 Zrotation Xrotation Yrotation
                End Site
                {
                  OFFSET 0 0 0
                }
              }
            }
          }
        }
      }
      JOINT ShoulderRight
      {
        OFFSET 13.722597 -5.314522 10.144101
        CHANNELS 3 Zrotation Xrotation Yrotation
        JOINT ElbowRight
        {
          OFFSET 2.002632 -25.354749 1.898933
          CHANNELS 3 Zrotation Xrotation Yrotation
          JOINT WristRight
          {
            OFFSET -0.421948 -25.411427 -8.513304
            CHANNELS 3 Zrotation Xrotation Yrotation
            JOINT HandRight
            {
              OFFSET -0.397541 -3.244034 -1.001961
              CHANNELS 3 Zrotation Xrotation Yrotation
              JOINT HandTipRight
              {
                OFFSET -1.434245 -5.936015 -4.152205
                CHANNELS 3 Zrotation Xrotation Yrotation
                End Site
                {
                  OFFSET 0 0 0
                }
              }
              JOINT ThumbRight
              {
                OFFSET -1.214743 0.846445 -5.851276
                CHANNELS 3 Zrotation Xrotation Yrotation
                End Site
                {
                  OFFSET 0 0 0
                }
              }
            }
          }
        }
      }
    }
  }
  JOINT HipLeft
  {
    OFFSET -4.880325 2.014438 -6.549813
    CHANNELS 3 Zrotation Xrotation Yrotation
    JOINT KneeLeft
    {
      OFFSET -19.185768 -25.007240 -18.850579
      CHANNELS 3 Zrotation Xrotation Yrotation
      JOINT AnkleLeft
      {
        OFFSET 1.855288 -26.872821 -10.311921
        CHANNELS 3 Zrotation Xrotation Yrotation
        JOINT FootLeft
        {
          OFFSET 7.657328 7.270211 -5.066551
          CHANNELS 3 Zrotation Xrotation Yrotation
          End Site
          {
            OFFSET 0 0 0
          }
        }
      }
    }
  }
  JOINT HipRight
  {
    OFFSET 5.640781 -0.217653 0.551010
    CHANNELS 3 Zrotation Xrotation Yrotation
    JOINT KneeRight
    {
      OFFSET -8.489819 -17.950680 -30.854301
      CHANNELS 3 Zrotation Xrotation Yrotation
      JOINT AnkleRight
      {
        OFFSET -4.649756 -26.606638 -9.637407
        CHANNELS 3 Zrotation Xrotation Yrotation
        JOINT FootRight
        {
          OFFSET 3.823293 -3.324678 8.437304
          CHANNELS 3 Zrotation Xrotation Yrotation
          End Site
          {
            OFFSET 0 0 0
          }
        }
      }
    }
  }
}
MOTION
Frames: 12
Frame Time: 0.033333
-47.801165 51.982201 344.884187 -0.000000 0.000000 -34.015894 -0.000000 0.000000 34.015894 -0.000000 0.000000 0.000000 -0.000000 0.000000 0.000000 0.000000 0.000000 0.000000 -0.000000 0.000000 0.000000 -0.000000 0.000000 0.000000 -0.000000 0.000000 0.000000 -0.000000 0.000000 0.000000 0.000000 0.000000 0.000000 0.000000 0.000000 0.000000 -0.000000 0.000000 0.000000 -0.000000 0.000000 0.000000 -0.000000 0.000000 0.000000 -0.000000 0.000000 0.000000 0.000000 0.000000 0.000000 0.000000 0.000000 0.000000 -0.000000 0.000000 34.015894 -0.000000 0.000000 0.000000 -0.000000 0.000000 0.000000 0.000000 0.000000 0.000000 -0.000000 0.000000 34.015894 -0.000000 0.000000 0.000000 -0.000000 0.000000 0.000000 0.000000 0.000000 0.000000
-47.453144 52.859149 343.713363 0.483686 1.463349 -34.887052 0.187833 -0.612691 34.886017 -0.287363 -0.853313 -0.006210 -0.000000 0.000000 0.000000 0.000000 0.000000 0.000000 -0.000000 0.000000 0.000000 -0.000000 0.000000 0.000000 -0.652287 -1.424361 -0.108784 1.429928 0.225523 -0.513671 0.000000 0.000000 0.000000 0.000000 0.000000 0.000000 -0.000000 0.000000 0.000000 -0.000000 0.000000 0.000000 1.009618 1.201103 -0.468606 -1.075779 -2.496988 0.818926 0.000000 0.000000 0.000000 0.000000 0.000000 0.000000 3.585953 -2.168672 35.163917 -3.733764 1.694559 0.474985 7.642278 1.190372 3.183953 0.000000 0.000000 0.000000 2.096102 -3.238592 35.507808 -0.325357 2.394662 -0.546325 -0.000000 0.000000 0.000000 0.000000 0.000000 0.000000
-47.117278 53.657275 342.681539 0.956529 2.780045 -35.652904 0.358556 -1.140837 35.642213 -0.582987 -1.643934 -0.016892 -0.000000 0.000000 0.000000 0.000000 0.000000 0.000000 -0.000000 0.000000 0.000000 0.688873 0.678130 -0.122119 -1.789790 -3.188413 -0.103937 2.340517 0.625594 -0.815981 0.000000 0.000000 0.000000 0.000000 0.000000 0.000000 -0.000000 0.000000 0.000000 1.377855 -0.011329 -0.461410 0.256274 2.262861 -0.353289 -1.573203 -5.102927 1.442012 0.000000 0.000000 0.000000 0.000000 0.000000 0.000000 6.750660 -4.021399 36.346966 -6.988993 3.121784 1.043614 14.032874 2.236847 5.839900 0.000000 0.000000 0.000000 4.069013 -6.164843 37.037735 0.239436 4.272948 -1.410686 -0.807156 0.315770 0.238879 0.000000 0.000000 0.000000
-46.793566 54.376581 341.788715 1.413972 3.929675 -36.313524 0.499029 -1.569227 36.286410 -0.868835 -1.484314 -0.030337 0.972842 -0.929585 -0.026218 0.000000 0.000000 0.000000 -0.017521 -0.885086 -0.000910 0.923503 0.806371 -0.177034 -2.268037 -4.050866 -0.132589 2.740420 1.183160 -0.888679 0.000000 0.000000 0.000000 0.000000 0.000000 0.000000 0.103468 -0.016626 0.077737 1.920458 -0.923904 -0.730413 -0.063305 3.269288 -0.383416 -1.573315 -7.887950 1.927044 0.000000 0.000000 0.000000 0.000000 0.000000 0.000000 9.438088 -5.569238 37.494748 -9.742866 4.260313 1.632795 19.090721 3.016816 8.007891 0.000000 0.000000 0.000000 5.866395 -8.757396 38.567965 0.467554 6.220984 -2.197484 -1.466622 1.288817 0.760084 0.000000 0.000000 0.000000
-46.482009 55.017066 341.034890 1.851376 4.894041 -36.870925 0.597694 -1.884383 36.822573 -1.092179 -1.815961 -0.040167 1.264036 -1.076701 -0.106217 0.000000 0.000000 0.000000 -0.105709 -1.211482 -0.006748 1.074678 0.780466 -0.224786 -2.447525 -4.395911 -0.128435 2.625189 1.884608 -0.715799 0.000000 0.000000 0.000000 0.000000 0.000000 0.000000 0.085859 -0.158654 0.093097 2.495942 -1.177739 -0.946598 -0.597741 4.264267 -0.342399 -1.114532 -10.899839 2.316730 0.000000 0.000000 0.000000 0.000000 0.000000 0.000000 11.603444 -6.830609 38.546887 -11.979318 5.103988 2.178031 22.832720 3.455590 9.769262 0.000000 0.000000 0.000000 7.436466 -11.002451 40.059473 0.775563 8.008619 -3.034525 -1.870809 1.381062 0.952342 0.000000 0.000000 0.000000
-46.182607 55.578731 340.420065 2.264140 5.657525 -37.328232 0.645079 -2.074691 37.255905 -1.281295 -2.061551 -0.047613 1.539109 -1.144055 -0.222982 0.000000 0.000000 0.000000 -0.236019 -1.554355 -0.016037 1.136591 0.593909 -0.263903 -2.312338 -4.200227 -0.087645 1.975604 2.718217 -0.283812 0.000000 0.000000 0.000000 0.000000 0.000000 0.000000 0.041375 -0.369617 0.103024 3.036600 -1.407266 -1.150943 -1.318935 5.285857 -0.239193 -0.209877 -14.169575 2.649319 0.000000 0.000000 0.000000 0.000000 0.000000 0.000000 13.212535 -7.826199 39.454472 -13.688101 5.656008 2.626544 25.313202 3.512948 11.207126 0.000000 0.000000 0.000000 8.730381 -12.892621 41.473844 1.166638 9.615672 -3.917711 -2.230580 1.305018 1.111795 0.000000 0.000000 0.000000
-45.735157 56.294226 339.790718 2.857755 6.384341 -38.001740 0.600392 -2.151007 37.891266 -1.547061 -2.301972 -0.057554 1.848558 -1.164248 -0.406982 0.000000 0.000000 0.000000 -0.456448 -2.016615 -0.033076 0.943739 0.021118 -0.271777 -1.255774 -2.286312 0.049762 -0.926759 1.647381 0.350931 0.000000 0.000000 0.000000 0.000000 0.000000 0.000000 -0.071606 -0.719470 0.107431 3.859408 -1.691900 -1.443898 -3.562367 6.610743 0.368912 2.697474 -20.194501 3.165410 0.000000 0.000000 0.000000 0.000000 0.000000 0.000000 14.973939 -8.691839 40.466245 -15.695200 6.190019 3.317076 28.577345 3.907500 12.910758 0.000000 0.000000 0.000000 10.031653 -15.005694 43.522426 1.758363 11.648038 -5.222763 -2.454425 0.735803 1.280844 0.000000 0.000000 0.000000
-45.382518 56.853063 339.128838 3.308945 7.170046 -38.685911 0.658699 -2.232657 38.539776 -1.730660 -2.519174 -0.063527 2.122387 -1.102532 -0.626338 0.000000 0.000000 0.000000 -0.692291 -2.494994 -0.053173 0.512534 -1.051758 -0.272073 0.950229 -0.438376 0.001051 -4.814519 5.497013 2.667224 0.000000 0.000000 0.000000 0.000000 0.000000 0.000000 -0.192046 -1.155629 0.106033 4.559109 -1.953492 -1.694077 -4.984428 8.220882 0.673148 4.517209 -23.975972 3.564291 0.000000 0.000000 0.000000 0.000000 0.000000 0.000000 15.398178 -10.183913 42.412992 -15.045943 6.613054 2.330404 25.916053 2.037687 13.832861 0.000000 0.000000 0.000000 11.320543 -16.856103 45.596665 2.391620 13.457933 -6.530731 -2.562266 0.014142 1.415885 0.000000 0.000000 0.000000
-45.033643 57.192772 339.026398 3.769969 6.979923 -39.408826 0.296645 -1.806773 39.229790 -1.867630 -2.443218 -0.062927 2.096402 -0.775778 -0.936866 0.000000 0.000000 0.000000 -1.065069 -4.127125 0.043735 0.428950 0.218819 -0.349500 1.054435 -0.147432 -0.017440 -6.566227 8.291791 4.347027 0.000000 0.000000 0.000000 0.000000 0.000000 0.000000 -0.256155 -1.809454 0.095046 4.933607 -2.034477 -1.882710 -6.136900 10.407127 0.840836 7.103335 -29.188371 4.393622 0.000000 0.000000 0.000000 0.000000 0.000000 0.000000 14.157670 -9.850861 42.612079 -16.674527 4.878897 3.423403 20.415445 -3.252811 13.400852 0.000000 0.000000 0.000000 11.056965 -17.416794 47.425588 3.927823 14.202238 -8.283911 -3.574853 -0.154042 1.612189 0.000000 0.000000 0.000000
-45.142078 57.305716 339.210925 3.544287 6.454847 -38.316142 0.123962 -1.190714 38.163727 -1.745891 -2.121892 -0.048914 2.308640 -0.382405 -1.240136 0.000000 0.000000 0.000000 -1.242621 -4.800024 0.052491 0.461831 0.646380 -0.373495 1.407870 1.515825 0.108771 -6.591980 6.135583 3.757734 0.000000 0.000000 0.000000 0.000000 0.000000 0.000000 -0.300735 -2.279944 0.090566 4.929934 -2.058125 -1.926416 -5.904433 11.395953 0.633412 7.681637 -29.314365 4.156028 0.000000 0.000000 0.000000 0.000000 0.000000 0.000000 12.700267 -9.010204 40.610202 -16.922042 3.019350 3.976198 15.537569 -6.698043 12.811274 0.000000 0.000000 0.000000 10.797493 -17.146729 46.129925 3.967328 14.587662 -8.272053 -3.863032 -0.161013 1.595047 0.000000 0.000000 0.000000
-45.144474 56.813478 340.086393 3.468417 5.251897 -36.918636 -0.225854 -0.676837 36.795935 -1.527441 -1.594702 -0.023408 2.828116 -0.373901 -1.258395 0.000000 0.000000 0.000000 -1.506890 -4.718868 0.049481 0.803897 0.796642 -0.458495 1.827588 1.536031 0.124215 -3.996312 11.014007 4.504790 0.000000 0.000000 0.000000 0.000000 0.000000 0.000000 -0.508614 -2.048721 0.083879 4.408261 -2.163798 -1.763466 -3.781888 10.177319 -0.012524 6.253167 -24.961810 2.883627 0.000000 0.000000 0.000000 0.000000 0.000000 0.000000 9.680966 -7.569938 38.054468 -15.179245 0.908300 3.804861 12.502973 -8.264436 12.908543 0.000000 0.000000 0.000000 8.727887 -15.495816 43.649724 3.426544 13.077330 -7.289466 -3.760045 0.515744 1.291505 0.000000 0.000000 0.000000
-45.043803 56.326822 341.248767 3.485865 3.994676 -36.274138 -0.413535 -0.362508 36.190156 -1.397894 -1.081013 -0.004799 3.600080 -0.701902 -1.044054 0.000000 0.000000 0.000000 -1.866027 -4.044102 0.052672 1.639340 -0.421020 -0.786389 0.428692 4.640324 0.683605 -4.954986 11.458040 5.565611 0.000000 0.000000 0.000000 0.000000 0.000000 0.000000 -0.887470 -1.312409 0.071295 4.349220 -3.172733 -1.632921 -1.363723 11.646981 -1.099679 5.955739 -27.887726 3.932041 0.000000 0.000000 0.000000 0.000000 0.000000 0.000000 7.739458 -6.350436 36.882429 -12.506973 0.003550 2.908104 14.819364 -7.454419 16.645226 0.000000 0.000000 0.000000 6.392684 -13.229007 41.710471 2.561146 10.751568 -5.875946 -3.140539 1.166218 0.978211 0.000000 0.000000 0.000000
